<svg width="128" height="128" xmlns="http://www.w3.org/2000/svg">

 <g>
  <title>background</title>
  <rect fill="none" id="canvas_background" height="402" width="582" y="-1" x="-1"/>
 </g>
 <g>
  <title>Layer 1</title>
  <path id="svg_1" fill="#ffffff" d="m128,112c0,8.8 -7.2,16 -16,16l-96,0c-8.8,0 -16,-7.2 -16,-16l0,-96c0,-8.8 7.2,-16 16,-16l96,0c8.8,0 16,7.2 16,16l0,96z"/>
  <path id="svg_2" fill="#00252e" d="m71.024634,122.630914l0,-49.812l-17.78,0l0,-17.763l17.784,0l0,-16.396c0,-16.537 9.764,-26.279 24.514,-26.279c7.068,0 12.834,0.756 14.605,0.991l0,18.573l-11.874,-0.005c-8.022,0 -9.523,3.979 -9.523,9.572l0,13.544l20.556,0l-2.904,17.763l-17.652,0l0,49.812l-17.726,0z"/>
 </g>
</svg>